<svg width="220" height="144" viewBox="0 0 220 144" fill="none" xmlns="http://www.w3.org/2000/svg">
<path d="M68.6937 20.482C68.6937 16.2041 68.738 8.39104 70.7591 4.53876C73.7567 -1.17479 79.5382 0.685893 81.912 5.47659C82.832 7.33321 82.6979 11.4175 83.7709 12.7709C85.0644 14.4025 83.4046 18.5139 86.3526 16.939C91.7665 14.0469 96.2336 12.9793 102.617 12.9793C105.122 12.9793 106.977 13.183 109.123 14.386C110.728 15.2859 113.993 17.5444 114.7 16.2617C116.398 13.1767 121.591 2.66309 125.388 2.66309C131.777 2.66309 130.035 10.6335 130.035 14.8549C130.035 20.5614 133.533 22.5316 134.63 27.5157C135.656 32.173 135.971 37.2649 134.734 41.6353C133.591 45.6709 130.635 53.2238 125.853 54.2961C125.176 54.4478 119.179 57.1519 118.882 57.5264C118.174 58.4191 113.156 58.9332 111.911 58.9332C106.795 58.9332 102.646 60.1592 97.5055 59.871C93.0394 59.6207 88.7737 57.2975 84.4938 57.0575C80.0705 56.8096 72.4016 54.2262 70.0878 50.0238C67.768 45.8103 64.9761 40.9689 64.9761 35.9562C64.9761 30.5594 67.0795 26.3065 68.6937 21.4198" stroke="#49494D" stroke-linecap="round"/>
<path d="M74.2705 18.606C74.2705 16.1398 74.6465 14.6992 75.2516 12.5621C75.9322 10.1584 78.9176 14.6147 78.9176 15.7924" stroke="#49494D" stroke-linecap="round"/>
<path d="M120.741 16.7286C120.819 16.1005 123.627 11.2743 124.045 11.1537C126.897 10.3316 124.458 15.8345 124.458 16.7286" stroke="#49494D" stroke-linecap="round"/>
<path d="M86.749 28.8008C85.9017 28.9076 84.6085 30.4394 85.8042 31.0782C86.5135 31.4571 88.2893 30.6954 87.2213 30.1248C85.4283 29.167 84.9359 31.1841 85.8042 31.1841C86.6179 31.1841 86.8736 30.2539 86.7227 29.5687C86.5809 28.9247 85.5812 29.7525 85.9092 30.1248C87.203 31.5936 87.3544 28.4017 86.8539 28.9067C86.5633 29.2 85.7652 31.3097 86.749 30.8133C87.2985 30.5361 87.2223 29.8071 86.5128 29.8071C85.983 29.8071 85.5215 30.6626 86.2766 30.7074C87.9136 30.8046 86.8585 29.0564 86.2766 30.2308" stroke="#49494D" stroke-linecap="round"/>
<path d="M108.006 30.23C108.006 32.2143 110.237 30.5978 108.714 30.2565C106.861 29.841 108.741 33.2628 108.741 31.0774C108.741 28.9325 107.001 32.12 108.688 31.6335C110.256 31.1816 108.372 29.3092 107.638 30.7067C107.048 31.832 109.166 32.6857 109.397 31.8719C109.73 30.6956 108.407 29.8428 107.638 30.8126C106.969 31.6571 108.289 33.2279 109.161 32.3485C109.927 31.5748 108.597 29.8718 108.006 31.66" stroke="#49494D" stroke-linecap="round"/>
<path d="M88.6382 44.0523C90.0762 44.0523 90.3143 45.9589 91.7087 45.9589C93.2735 45.9589 93.8256 44.6428 94.8841 43.6815C96.1454 42.5361 99.167 49.089 101.865 45.0056" stroke="#49494D" stroke-linecap="round"/>
<path d="M113.202 42.1476C115.281 42.1476 117.361 41.4564 119.396 41.0883C123.907 40.2721 128.977 39.9839 133.331 38.5196C135.731 37.7123 138.058 36.9043 140.6 36.9043" stroke="#49494D" stroke-linecap="round"/>
<path d="M113.202 46.4355C118.035 46.9774 123.39 49.5724 127.951 51.2022C131.137 52.3408 134.136 53.9535 137.294 55.0154" stroke="#49494D" stroke-linecap="round"/>
<path d="M43.7622 30.2305C50.3282 30.2305 56.3237 33.2475 62.6312 34.5204C64.7792 34.9539 67.4179 35.4922 69.2708 36.4271" stroke="#49494D" stroke-linecap="round"/>
<path d="M43.7622 47.3897C46.1625 47.1205 48.5305 45.7004 51.0841 45.5095C54.293 45.2696 57.4511 44.1648 60.6629 44.053C63.2888 43.9617 65.4782 43.422 67.8536 42.623" stroke="#49494D" stroke-linecap="round"/>
<path d="M81.3641 57.0286C77.9543 60.4692 74.6424 61.9818 73.2115 66.602C71.8704 70.9325 70.8946 77.0033 72.115 81.4672C76.3724 97.0401 89.2735 104.067 103.962 107.926C126.696 113.9 149.805 111.629 171.28 103.116C177.143 100.792 181.636 93.093 182.579 86.9034C183.292 82.2328 185.865 68.4753 181.34 64.822C179.571 63.394 179.495 60.2699 177.478 58.9529C173.616 56.4315 170.415 53.0473 166.417 50.5822C155.259 43.7011 143.101 49.2351 131.137 49.2351" stroke="#49494D" stroke-linecap="round"/>
<path d="M182.134 88.4941C182.351 86.5204 184.946 84.5297 186.268 83.2984C188.22 81.4803 191.229 79.8672 193.886 79.4547C196.527 79.0448 198.812 77.6769 201.409 77.3494C203.395 77.0988 205.304 75.6832 206.769 74.4328C213.596 68.6031 212.993 59.9112 214.176 51.8536C214.241 51.4133 214.693 48.2031 215.401 48.2031C216.214 48.2031 216.923 49.1301 217.45 49.5552C218.608 50.4901 218.482 53.0993 218.655 54.326C218.855 55.7369 219 56.9934 219 58.44C219 63.9394 217.522 70.5158 213.66 74.4135C211.105 76.9908 209.189 78.9194 205.907 80.575C202.775 82.1553 199.732 83.8644 196.604 85.4423C195.036 86.2338 193.177 86.7927 191.513 87.3738C189.63 88.0313 187.832 87.7863 186.268 89.1894C185.088 90.248 183.918 90.9058 182.899 92.048C181.925 93.1402 180.365 94.1491 179.722 95.4475" stroke="#49494D" stroke-linecap="round"/>
<path d="M21.6757 107.38C15.5442 107.38 9.82629 108.309 4.46314 111.235C1.73606 112.722 -0.199008 116.709 3.22304 118.642C7.11247 120.84 12.6114 120.499 16.8393 120.194C22.5648 119.781 27.7209 118.838 33.0102 116.64C34.6317 115.967 40.0205 114.797 38.9874 111.785C37.9873 108.87 33.0358 107.38 30.3812 107.38C28.9779 107.38 27.1414 106.865 25.892 106.504C24.4156 106.079 22.3183 106.479 20.7828 106.479" stroke="#49494D" stroke-linecap="round"/>
<path d="M1.1399 116.389C1.7823 122.223 2.14174 127.961 1.36311 133.932C1.24064 134.872 0.446844 140.829 1.68554 141.165C5.0428 142.077 8.95733 141.984 12.4 142.066C18.1996 142.204 23.756 143.254 29.6373 142.942C33.6385 142.729 37.8383 141.119 41.319 139.363" stroke="#49494D" stroke-linecap="round"/>
<path d="M39.0869 113.236C39.4559 116.588 41.8625 119.621 42.212 123.147C42.4937 125.99 43.065 129.07 43.5761 131.906C43.8798 133.592 45.6095 136.318 44.4441 137.788C43.8748 138.506 40.4556 139.364 39.5333 139.364" stroke="#49494D" stroke-linecap="round"/>
<path d="M9.43844 126.125C9.43844 126.788 9.62977 127.444 9.71705 128.099C9.91074 129.554 10.0963 131.009 10.2743 132.466C10.4964 134.284 11.0296 136.296 10.7696 138.133C10.7659 138.159 9.9074 137.566 9.76039 137.477C8.80466 136.898 7.83752 136.341 6.88755 135.753C5.84793 135.109 4.76134 134.493 3.70514 133.884C2.93362 133.44 6.08132 129.912 6.54083 129.436C7.37225 128.575 8.22156 127.356 9.21554 126.687" stroke="#49494D" stroke-linecap="round"/>
<path d="M10.2188 131.299C13.7813 131.415 17.2697 131.172 20.8185 130.874C23.5411 130.645 26.2375 130.499 28.9417 130.062C29.7038 129.938 30.4733 129.867 31.2326 129.724C32.066 129.568 32.1942 129.467 32.6938 128.812C33.6591 127.546 34.8177 126.252 35.6285 124.889" stroke="#49494D" stroke-linecap="round"/>
<path d="M32.062 129.723C33.3732 130.925 35.3101 131.526 36.8914 132.259C37.3066 132.452 37.6597 132.73 38.0801 132.871" stroke="#49494D" stroke-linecap="round"/>
<path d="M14.4541 129.049C14.8171 129.944 14.9508 131.093 15.1228 132.048C15.2233 132.605 15.2059 133.153 15.4571 133.66" stroke="#49494D" stroke-linecap="round"/>
<path d="M18.9116 129.273C19.234 129.436 19.2933 131.548 19.3574 131.922C19.4954 132.728 19.6703 133.529 19.8032 134.334" stroke="#49494D" stroke-linecap="round"/>
<path d="M23.1465 129.273C23.933 130.64 23.8911 132.279 24.2609 133.772" stroke="#49494D" stroke-linecap="round"/>
<path d="M26.9355 128.824C27.3928 129.701 27.6725 130.628 27.9633 131.573C28.0955 132.003 28.3843 132.526 28.3843 132.985" stroke="#49494D" stroke-linecap="round"/>
<path d="M8.1014 130.061C8.1014 130.72 7.36577 131.418 6.87549 131.747" stroke="#49494D" stroke-linecap="round"/>
<path d="M6.76416 130.623C7.4206 130.983 8.07338 131.5 8.65875 131.973" stroke="#49494D" stroke-linecap="round"/>
</svg>
