<svg width="123" height="74" viewBox="0 0 123 74" fill="none" xmlns="http://www.w3.org/2000/svg">
<path d="M24.4481 26.865C24.4481 23.1346 24.4335 3.47214 28.3781 2.34509C34.2308 0.672906 37.1626 7.8054 40.1682 11.1449C41.8215 12.982 42.7024 15.8407 44.7817 17.2963C47.3629 19.1031 55.786 13.0245 59.0494 13.0245C63.0919 13.0245 72.4056 14.7901 75.5384 17.2963C81.8934 22.3803 83.3296 9.28619 88.2682 5.33533C89.958 3.98345 93.6981 -0.597676 95.8719 1.57618C97.6708 3.37508 99.665 9.02169 99.802 11.4867C99.9716 14.5408 99.802 17.6542 99.802 20.7137C99.802 24.6762 102.622 23.2771 105.184 25.3272C109.178 28.5218 113.642 33.9384 113.642 39.1677C113.642 72.131 80.8377 73 55.2048 73C43.3006 73 22.6966 72.69 18.6385 59.5012C15.5978 49.619 11.2324 32.7039 22.9103 26.865" stroke="black" stroke-linecap="round"/>
<path d="M32.1375 20.7134C32.1375 13.0036 39.8266 12.427 39.8266 20.7134" stroke="black" stroke-linecap="round"/>
<path d="M85.9619 19.1763C86.6351 13.7907 94.3807 13.1036 90.5754 20.7141" stroke="black" stroke-linecap="round"/>
<path d="M46.4051 37.5831C43.8827 37.8984 47.7045 39.6968 46.9006 37.9885C45.7748 35.5963 45.6736 40.7766 46.7204 38.7993C47.8429 36.6791 43.5254 39.2047 46.4952 39.2047C49.5649 39.2047 47.1434 36.3047 46.4952 37.7633C46.2537 38.3066 47.0523 39.817 47.5312 38.7993C47.9156 37.9825 46.4536 36.8254 45.6843 37.3579C43.3316 38.9867 46.9074 40.9487 46.8105 39.2047C46.6801 36.8589 44.2947 39.203 45.9997 40.1056C47.9752 41.1515 48.2202 38.4584 46.8105 37.9885" stroke="black" stroke-linecap="round"/>
<path d="M73.1624 37.1777C71.2512 37.3901 73.6959 39.437 74.5588 38.5741C75.9536 37.1793 73.1286 37.3692 74.0633 38.3039C74.3003 38.5409 74.5883 37.7299 74.1534 37.6057C73.7367 37.4866 72.8503 37.9822 73.3651 38.394C74.3094 39.1494 75.0512 37.9922 74.1309 37.5831C73.398 37.2574 70.7659 37.0335 72.0363 38.3039C73.0636 39.3312 73.9665 38.0359 73.2975 37.8534C72.783 37.7131 71.0871 39.0307 71.6309 39.5201C72.1569 39.9935 74.5013 38.8204 75.0092 38.5741C76.4315 37.8845 72.3026 37.7614 73.5678 38.394" stroke="black" stroke-linecap="round"/>
<path d="M51.2705 53.7973C52.9501 54.0073 54.0694 56.6716 56.2255 55.1036C57.5505 54.1399 58.1147 52.4661 59.6939 53.8874C61.6098 55.6117 66.7505 57.2221 67.8921 53.7973" stroke="black" stroke-linecap="round"/>
<path d="M87.3516 50.5571C88.7453 49.5434 91.4768 49.3421 93.0723 48.9354C97.7002 47.7558 102.389 46.5881 107.081 45.6922C112.106 44.7329 117.261 44.4987 122.216 43.2598" stroke="black" stroke-linecap="round"/>
<path d="M88.9727 54.2051C93.4143 56.2952 98.6335 56.5427 103.432 57.2231C107.456 57.7937 111.452 59.1286 115.504 59.4528C116.593 59.5399 117.59 59.3919 118.567 59.8808" stroke="black" stroke-linecap="round"/>
<path d="M1 44.8809C2.36862 44.8809 3.58843 45.9869 4.96396 46.2773C9.53059 47.2413 14.0589 48.3349 18.6126 49.3403C22.1597 50.1234 25.7101 51.3673 29.3784 51.3673" stroke="black" stroke-linecap="round"/>
<path d="M6.67578 62.7177C9.02301 62.0776 11.5055 59.9257 13.7929 58.934C16.9745 57.5545 20.5071 56.0199 23.928 55.3979C25.4865 55.1146 27.6177 54.4765 28.9731 53.7988" stroke="black" stroke-linecap="round"/>
<path d="M99.2912 34.2532C95.4195 34.7371 103.234 36.69 101.012 34.4683C100.322 33.778 98.323 34.1126 98.323 35.2213C98.323 36.3984 100.229 36.1591 99.2912 35.2213" stroke="#EC6699" stroke-width="2" stroke-linecap="round"/>
<path d="M109.941 34.252C109.941 37.2652 114.006 36.3419 111.662 34.4671C110.836 33.8064 108.314 34.9904 109.188 35.9731C109.704 36.5541 111.676 36.0878 109.941 35.2201" stroke="#EC6699" stroke-width="2" stroke-linecap="round"/>
<path d="M98.323 44.9023C101.424 45.2899 94.7119 55.9054 93.4822 56.5203" stroke="#EC6699" stroke-width="2" stroke-linecap="round"/>
<path d="M108.973 43.9336C112.804 44.8913 106.612 52.8592 105.1 53.6152" stroke="#EC6699" stroke-width="2" stroke-linecap="round"/>
</svg>
