<svg width="71" height="43" viewBox="0 0 71 43" fill="none" xmlns="http://www.w3.org/2000/svg">
<path d="M14.3055 15.677C14.3055 13.5602 14.2972 2.40281 16.5356 1.76327C19.8567 0.814391 21.5204 4.86171 23.2259 6.75671C24.1641 7.79916 24.6639 9.42134 25.8438 10.2473C27.3085 11.2726 32.0882 7.82327 33.94 7.82327C36.2339 7.82327 41.5189 8.82515 43.2966 10.2473C46.9027 13.1322 47.7177 5.70198 50.5201 3.46007C51.479 2.69295 53.6013 0.0934024 54.8348 1.32695C55.8556 2.34773 56.9872 5.55189 57.0649 6.95063C57.1612 8.68368 57.0649 10.4504 57.0649 12.1865C57.0649 14.435 58.665 13.6411 60.1192 14.8044C62.3852 16.6172 64.9187 19.6909 64.9187 22.6582C64.9187 41.3631 46.3037 41.8562 31.7584 41.8562C25.0034 41.8562 13.3117 41.6804 11.0089 34.1964C9.28346 28.5887 6.80633 18.9903 13.4329 15.677" stroke="black" stroke-linecap="round"/>
<path d="M18.6689 12.1862C18.6689 7.81134 23.0321 7.48411 23.0321 12.1862" stroke="black" stroke-linecap="round"/>
<path d="M49.2114 11.3146C49.5934 8.25851 53.9887 7.86861 51.8293 12.1872" stroke="black" stroke-linecap="round"/>
<path d="M26.765 21.7592C25.3337 21.9381 27.5024 22.9586 27.0462 21.9893C26.4074 20.6318 26.3499 23.5714 26.9439 22.4494C27.5809 21.2462 25.1309 22.6794 26.8161 22.6794C28.5581 22.6794 27.184 21.0338 26.8161 21.8615C26.6791 22.1698 27.1323 23.0268 27.404 22.4494C27.6222 21.9858 26.7925 21.3292 26.356 21.6314C25.021 22.5557 27.05 23.669 26.9951 22.6794C26.9211 21.3483 25.5675 22.6784 26.535 23.1906C27.656 23.7841 27.795 22.2559 26.9951 21.9893" stroke="black" stroke-linecap="round"/>
<path d="M41.9484 21.5293C40.8639 21.6498 42.2511 22.8113 42.7408 22.3217C43.5322 21.5302 41.9292 21.6379 42.4596 22.1683C42.5941 22.3028 42.7575 21.8426 42.5107 21.7721C42.2743 21.7046 41.7713 21.9858 42.0634 22.2194C42.5992 22.6481 43.0202 21.9915 42.4979 21.7593C42.0821 21.5745 40.5885 21.4475 41.3094 22.1683C41.8923 22.7513 42.4047 22.0162 42.0251 21.9127C41.7331 21.8331 40.7707 22.5807 41.0793 22.8585C41.3778 23.1271 42.7082 22.4614 42.9964 22.3217C43.8034 21.9304 41.4605 21.8605 42.1784 22.2194" stroke="black" stroke-linecap="round"/>
<path d="M29.5259 30.9599C30.4789 31.079 31.1141 32.5909 32.3376 31.7012C33.0895 31.1543 33.4096 30.2045 34.3057 31.011C35.3929 31.9895 38.31 32.9033 38.9578 30.9599" stroke="black" stroke-linecap="round"/>
<path d="M50 29.1213C50.7909 28.5461 52.3408 28.4319 53.2462 28.2011C55.8723 27.5317 58.5327 26.8691 61.1956 26.3607C64.0468 25.8164 66.9718 25.6835 69.784 24.9805" stroke="black" stroke-linecap="round"/>
<path d="M50.9199 31.1914C53.4403 32.3775 56.402 32.5179 59.1249 32.904C61.4085 33.2278 63.6755 33.9853 65.9752 34.1692C66.5928 34.2186 67.1585 34.1347 67.7133 34.4121" stroke="black" stroke-linecap="round"/>
<path d="M1 25.9004C1.77662 25.9004 2.4688 26.528 3.24934 26.6928C5.84066 27.2398 8.41024 27.8604 10.9942 28.4309C13.007 28.8753 15.0217 29.5811 17.1032 29.5811" stroke="black" stroke-linecap="round"/>
<path d="M4.2207 36.022C5.55263 35.6587 6.96129 34.4376 8.2593 33.8749C10.0647 33.0921 12.0692 32.2213 14.0105 31.8683C14.8948 31.7076 16.1042 31.3455 16.8733 30.9609" stroke="black" stroke-linecap="round"/>
</svg>
