<svg width="177" height="112" viewBox="0 0 177 112" fill="none" xmlns="http://www.w3.org/2000/svg">
<path d="M25.6937 20.482C25.6937 16.2041 25.738 8.39104 27.7591 4.53876C30.7567 -1.17479 36.5382 0.685893 38.912 5.47659C39.832 7.33321 39.6979 11.4175 40.7709 12.7709C42.0644 14.4025 40.4046 18.5139 43.3526 16.939C48.7665 14.0469 53.2336 12.9793 59.6173 12.9793C62.1216 12.9793 63.9771 13.183 66.1232 14.386C67.7285 15.2859 70.9935 17.5444 71.6997 16.2617C73.3982 13.1767 78.5911 2.66309 82.3879 2.66309C88.7769 2.66309 87.035 10.6335 87.035 14.8549C87.035 20.5614 90.5328 22.5316 91.6304 27.5157C92.6561 32.173 92.9712 37.2649 91.7337 41.6353C90.591 45.6709 87.6346 53.2238 82.8526 54.2961C82.176 54.4478 76.179 57.1519 75.882 57.5264C75.1743 58.4191 70.1564 58.9332 68.9114 58.9332C63.795 58.9332 59.6462 60.1592 54.5055 59.871C50.0394 59.6207 45.7737 57.2975 41.4938 57.0575C37.0705 56.8096 29.4016 54.2262 27.0878 50.0238C24.768 45.8103 21.9761 40.9689 21.9761 35.9562C21.9761 30.5594 24.0795 26.3065 25.6937 21.4198" stroke="#49494D" stroke-linecap="round"/>
<path d="M31.2705 18.606C31.2705 16.1398 31.6465 14.6992 32.2516 12.5621C32.9322 10.1584 35.9176 14.6147 35.9176 15.7924" stroke="#49494D" stroke-linecap="round"/>
<path d="M77.7407 16.7286C77.8185 16.1005 80.6273 11.2743 81.0453 11.1537C83.8969 10.3316 81.4584 15.8345 81.4584 16.7286" stroke="#49494D" stroke-linecap="round"/>
<path d="M43.7487 28.8008C42.9015 28.9076 41.6083 30.4394 42.804 31.0782C43.5132 31.4571 45.2891 30.6954 44.2211 30.1248C42.428 29.167 41.9356 31.1841 42.804 31.1841C43.6177 31.1841 43.8734 30.2539 43.7225 29.5687C43.5806 28.9247 42.5809 29.7525 42.9089 30.1248C44.2027 31.5936 44.3542 28.4017 43.8537 28.9067C43.5631 29.2 42.765 31.3097 43.7487 30.8133C44.2983 30.5361 44.2221 29.8071 43.5125 29.8071C42.9828 29.8071 42.5213 30.6626 43.2763 30.7074C44.9134 30.8046 43.8583 29.0564 43.2763 30.2308" stroke="#49494D" stroke-linecap="round"/>
<path d="M65.0058 30.23C65.0058 32.2143 67.2366 30.5978 65.7144 30.2565C63.8612 29.841 65.7407 33.2628 65.7407 31.0774C65.7407 28.9325 64.0008 32.12 65.6882 31.6335C67.2558 31.1816 65.3717 29.3092 64.6384 30.7067C64.048 31.832 66.1663 32.6857 66.3967 31.8719C66.7298 30.6956 65.4073 29.8428 64.6384 30.8126C63.9689 31.6571 65.2891 33.2279 66.1605 32.3485C66.9274 31.5748 65.5966 29.8718 65.0058 31.66" stroke="#49494D" stroke-linecap="round"/>
<path d="M45.6382 44.0523C47.0762 44.0523 47.3143 45.9589 48.7087 45.9589C50.2735 45.9589 50.8256 44.6428 51.8841 43.6815C53.1454 42.5361 56.167 49.089 58.8648 45.0056" stroke="#49494D" stroke-linecap="round"/>
<path d="M70.2019 42.1476C72.2806 42.1476 74.3611 41.4564 76.3953 41.0883C80.9063 40.2721 85.9772 39.9839 90.3306 38.5196C92.7307 37.7123 95.0574 36.9043 97.6 36.9043" stroke="#49494D" stroke-linecap="round"/>
<path d="M70.2019 46.4355C75.0344 46.9774 80.3902 49.5724 84.9507 51.2022C88.1368 52.3408 91.1361 53.9535 94.2933 55.0154" stroke="#49494D" stroke-linecap="round"/>
<path d="M0.762207 30.2305C7.32823 30.2305 13.3237 33.2475 19.6312 34.5204C21.7792 34.9539 24.4179 35.4922 26.2708 36.4271" stroke="#49494D" stroke-linecap="round"/>
<path d="M0.762207 47.3897C3.16254 47.1205 5.53046 45.7004 8.0841 45.5095C11.293 45.2696 14.4511 44.1648 17.6629 44.053C20.2888 43.9617 22.4782 43.422 24.8536 42.623" stroke="#49494D" stroke-linecap="round"/>
<path d="M38.3641 57.0286C34.9543 60.4692 31.6424 61.9818 30.2115 66.602C28.8704 70.9325 27.8946 77.0033 29.115 81.4672C33.3724 97.0401 46.2735 104.067 60.9623 107.926C83.6959 113.9 106.805 111.629 128.28 103.116C134.143 100.792 138.636 93.093 139.579 86.9034C140.292 82.2328 142.865 68.4753 138.34 64.822C136.571 63.394 136.495 60.2699 134.478 58.9529C130.616 56.4315 127.415 53.0473 123.417 50.5822C112.259 43.7011 100.101 49.2351 88.1374 49.2351" stroke="#49494D" stroke-linecap="round"/>
<path d="M139.133 88.4941C139.351 86.5204 141.946 84.5297 143.268 83.2984C145.22 81.4803 148.229 79.8672 150.886 79.4547C153.527 79.0448 155.812 77.6769 158.409 77.3494C160.395 77.0988 162.304 75.6832 163.768 74.4328C170.596 68.6031 169.993 59.9112 171.176 51.8536C171.241 51.4133 171.693 48.2031 172.401 48.2031C173.214 48.2031 173.923 49.1301 174.449 49.5552C175.607 50.4901 175.482 53.0993 175.655 54.326C175.855 55.7369 176 56.9934 176 58.44C176 63.9394 174.522 70.5158 170.659 74.4135C168.105 76.9908 166.188 78.9194 162.907 80.575C159.775 82.1553 156.732 83.8644 153.604 85.4423C152.036 86.2338 150.176 86.7927 148.513 87.3738C146.63 88.0313 144.832 87.7863 143.268 89.1894C142.088 90.248 140.918 90.9058 139.899 92.048C138.925 93.1402 137.365 94.1491 136.721 95.4475" stroke="#49494D" stroke-linecap="round"/>
<path d="M5 80.0156C6.90987 76.9836 9.93718 75.2248 12.5 74.0624C13.3141 73.6932 16.2265 70.3218 16.875 71.1226C18.9631 73.7008 19.221 78.2901 20 82" stroke="black" stroke-linecap="round"/>
<path d="M5 80C5.09968 83.0226 6.06598 86.0513 6.54488 88.9556C6.83132 90.6927 7.15535 94.0707 7.68082 95.4617C9.08166 99.17 9.65084 103.63 10.816 107.556C11.589 110.16 12.552 111 14.2011 111C15.229 111 18.6099 108.778 19.4038 107.709C20.3863 106.384 22.9933 107.454 22.9933 103.767C22.9933 101.191 23.0962 98.1289 22.4935 95.8444C21.7483 93.0197 21.5165 82.545 20.1308 81.3778" stroke="black" stroke-linecap="round"/>
<path d="M7 87.2079C7.63886 86.2518 8.68036 86.3033 9.48834 86.0313C9.99523 85.8606 10.4547 85.4133 10.939 85.122C11.6372 84.7022 12.3486 84.3359 13.032 83.8325C13.5343 83.4625 14.0159 83.0382 14.4897 82.5667C15.0127 82.0464 15.6866 81.7417 16.2439 81.3247C16.6144 81.0475 16.9727 80.7528 17.3557 80.5225C17.6263 80.3597 17.9864 80.0411 18.2769 80.0411C18.4238 80.0411 18.4333 79.9066 18.577 80.1243C18.6903 80.296 18.8442 80.3201 18.877 80.6235C18.909 80.9202 18.9641 81.6727 19.1029 81.8595C19.3642 82.2116 19.7699 83.1902 19.7699 83.7315C19.7699 84.1552 19.897 84.6133 19.897 85.0151C19.897 85.2011 19.981 86.3583 20.0558 86.4591C20.1466 86.5814 20.1171 87.4622 20.1547 87.6833C20.2182 88.0575 20.3382 88.4976 20.4017 88.8718C20.4391 89.0923 20.5323 89.1279 20.5323 89.4007C20.5323 89.6499 20.4688 89.8429 20.4688 90.096C20.4688 90.5366 20.6182 90.7581 20.7723 91.0825C20.9457 91.4473 20.9227 91.9494 21.0265 92.3423C21.1248 92.7148 20.9998 93.3261 21.1535 93.6497C21.3049 93.9683 21.346 94.8606 21.3582 95.2305C21.3693 95.5646 21.4505 96.0879 21.5347 96.4071C21.7258 97.1309 21.803 98.2609 21.803 99.0813C21.803 99.313 21.803 99.5448 21.803 99.7766C21.803 100.02 21.6838 100.234 21.6759 100.472C21.6597 100.962 21.7394 101.381 21.7394 101.862C21.7394 102.089 21.6759 102.262 21.6759 102.451C21.6759 102.662 21.7394 103.286 21.7394 103.075C21.7394 102.579 21.7966 101.886 21.9159 101.435C21.9847 101.174 21.9936 101.125 21.9936 101.542C21.9936 101.791 21.9936 102.041 21.9936 102.29C21.9936 102.687 22.008 103.052 21.9936 103.467C21.9727 104.063 21.3517 105.217 20.9771 104.964" stroke="#F7473E" stroke-linecap="round"/>
<path d="M21 85.0011C21 84.9653 21 85.8166 21 85.8837C21 85.9449 21 85.6668 21 85.5566C21 85.4282 21 85.8182 21 85.8899C21 86.569 21 87.3058 21 87.9451C21 89.7043 21 91.2689 21 93" stroke="#F7473E" stroke-linecap="round"/>
<path d="M7 89C7 89.2107 7.00961 89.4372 7.10145 89.6059C7.16339 89.7198 7.38664 90.0986 7.3913 90.2119C7.4054 90.5543 7.40889 91.183 7.50725 91.5169C7.63737 91.9587 7.5773 92.4733 7.73188 92.9153C7.92153 93.4574 8.14912 94.0375 8.24275 94.6398C8.41706 95.761 8.99812 96.6424 9.21377 97.7213C9.29976 98.1515 9.48778 98.533 9.6413 98.928C9.74438 99.1932 9.819 99.8706 10 100" stroke="#F7473E" stroke-linecap="round"/>
<path d="M10 100C10 101.106 10.4623 102.244 10.6088 103.278C10.7554 104.313 10.8087 105.305 11.0272 106.296C11.2276 107.206 11.6892 107.711 11.9286 108.58C12.1438 109.362 12.5484 110 13 110" stroke="#F7473E" stroke-linecap="round"/>
<path d="M13 110C13.2148 110 13.3336 110 13.5417 110C13.764 110 13.9178 110 14.125 110C14.4223 110 14.7315 110 15 110" stroke="#F7473E" stroke-linecap="round"/>
<path d="M15 110C15.2349 109.95 15.481 109.539 15.6947 109.515C15.9068 109.491 16.2726 109.501 16.4807 109.387C16.6802 109.278 16.9373 109.109 17.1193 108.909C17.3838 108.619 17.6849 108.572 17.9684 108.33C18.2007 108.132 18.5708 108.105 18.7754 107.791C18.999 107.448 19.3022 107.113 19.5754 106.963C19.7653 106.859 20.0413 106.606 20.2421 106.606C20.5457 106.606 20.7512 106.239 21 106" stroke="#F7473E" stroke-linecap="round"/>
<path d="M16 91C16 91.6753 16 92.3349 16 93" stroke="#F7473E" stroke-width="4" stroke-linecap="round"/>
<path d="M15.5887 90.8367C15.572 91.9907 15.3705 93.1265 15.3392 94.2905C15.3299 94.6363 15.1069 96.59 15.6034 96.2426C15.8826 96.0473 16.5517 95.1762 16.4178 94.6024C16.2264 93.782 15.3444 92.613 14.8 92.5059C14.6288 92.4722 14.4189 92.9555 14.301 92.8524C13.9115 92.5117 13.4741 92.3139 13.0721 92.0034C12.7187 91.7305 12.4196 91.4052 12.0632 91.1082C11.55 90.6804 10.8823 90.7401 10.372 90.2938C10.0716 90.0311 9.89973 90.005 9.54661 90.005C9.43126 90.005 8.99876 89.7715 9 89.774C9.08602 89.9481 10.1124 88.9311 10.3353 88.8673C10.9636 88.6874 11.5362 88.3378 12.0889 87.9028C12.9619 87.2155 13.9038 86.7269 14.7449 85.9506C15.0688 85.6517 15.4478 85.4678 15.7831 85.1709C15.967 85.0081 16.3152 84.6358 16.5132 84.5991C16.6697 84.5701 16.9319 84.3082 17.0708 84.1833C17.1943 84.0722 17.7176 83.8964 17.8338 84.0793C18.1634 84.5982 18.132 85.3344 18.2264 86.0026C18.3495 86.875 18.4269 87.8585 18.4978 88.7518C18.534 89.2067 18.6704 89.6841 18.6923 90.1321C18.7282 90.8667 18.7807 91.6336 18.828 92.3788C18.8612 92.9022 18.8904 93.4087 18.8904 93.9555C18.8904 94.4031 19.0431 94.8248 19.0921 95.2492C19.1241 95.5256 19.1693 96.0557 19.2535 96.2946C19.3491 96.5653 19.2606 97.1532 19.3673 97.3631C19.4909 97.6064 19.4708 98.1585 19.58 98.4778C19.6624 98.7186 19.7983 99.3096 19.8148 99.5693C19.864 100.344 19.9469 101.223 19.9469 101.96C19.9469 102.44 20.1319 102.562 19.8112 102.688C19.5283 102.799 19.1771 103 18.8904 103" stroke="#F7473E" stroke-width="4" stroke-linecap="round"/>
<path d="M15.7941 93.9226C15.8557 96.3338 15.7611 98.8052 15.9317 101.201C15.9581 101.572 16.0955 102.464 15.8844 101.699C15.5069 100.33 14.9946 98.9795 14.495 97.7304C14.0872 96.7108 13.6978 95.6965 13.2002 94.7867C12.8189 94.0896 12.4316 93.6123 12 93" stroke="#F7473E" stroke-width="4" stroke-linecap="round"/>
<path d="M12 93C12.242 94.7705 12.4737 96.619 12.8428 98.2514C12.8678 98.3621 13.027 99 12.996 99" stroke="#F7473E" stroke-width="4" stroke-linecap="round"/>
<path d="M10 93C10.4386 94.6047 10.6419 96.4003 11.337 97.7096C12.2571 99.4428 12.5441 102.369 14 103" stroke="#F7473E" stroke-width="4" stroke-linecap="round"/>
<path d="M13.0001 100C13.0001 101.747 12.9686 104.32 13.9306 104.934C14.4078 105.238 14.872 104.412 15.2889 104.012C15.4107 103.896 15.5512 103.431 15.6389 103.205C15.7626 102.887 15.9395 102.454 16 102.06" stroke="#F7473E" stroke-width="4" stroke-linecap="round"/>
<path d="M17.2857 99.0632C17.3137 98.7109 17.6985 99.9443 17.7114 99.9945C17.8061 100.363 18 100.856 18 101.261C18 101.655 17.893 102.186 17.8196 102.561C17.7355 102.992 17.7886 103.496 17.5815 103.822C17.3576 104.174 17.2798 104.181 16.961 104.299C16.468 104.482 16.0454 104.962 15.518 104.992C15.1204 105.014 14.7174 104.995 14.3276 104.884C13.8689 104.753 13.4386 104.2 13 103.97" stroke="#F7473E" stroke-width="4" stroke-linecap="round"/>
<path d="M12 102C12.0485 102.462 12.4411 102.81 12.5863 103.24C12.8385 103.987 12.8523 104.121 13.4834 104.597C13.8394 104.866 14.6567 105.158 14.8866 105.583C14.9831 105.762 15.1213 105.869 14.7964 105.912C14.5594 105.943 14.4219 106.093 14.1649 105.912" stroke="#F7473E" stroke-width="4" stroke-linecap="round"/>
<path d="M18.0409 97.6668C18.2392 97.6668 18.3964 97.3083 18.6028 97.2343C18.9111 97.1237 19.2071 96.71 18.8048 97.3469C18.0301 98.5732 17.2588 99.7775 16.5865 101.133C16.2194 101.874 15.5375 102.653 15 103" stroke="#F7473E" stroke-width="4" stroke-linecap="round"/>
<path d="M15 89H16" stroke="#F7473E" stroke-linecap="round"/>
<path d="M16 87.1836C16.383 87.6616 16.3282 88.8245 16.6136 87.451C16.6915 87.0761 16.6909 86.7088 16.7499 87.3477C16.8031 87.923 16.8863 88.456 16.8863 89.0433C16.8863 89.4023 16.8561 89.806 16.8976 90.1615C16.9588 90.6845 17.213 91.1185 17.409 91.5229C17.7482 92.2228 18.09 92.9124 18.3861 93.6621C18.5945 94.1894 18.8257 94.878 19.102 95.3213C19.4213 95.8337 19.5632 94.4429 19.6133 94.1787C19.6377 94.0502 19.714 92.9565 19.8178 92.9815C19.9535 93.0141 20.095 93.3243 20.1739 93.4677C20.5752 94.1969 20.9315 95.0101 21.2723 95.8136C21.3454 95.9861 22.1189 97.8003 21.9843 97.9893C21.8892 98.1229 21.7724 96.9636 21.7608 96.871C21.7161 96.5121 21.6653 95.9104 21.5071 95.6312C21.3906 95.4256 21.2977 95.3754 21.2495 95.066C21.1831 94.6397 20.9768 94.3316 20.9768 93.8566" stroke="#F7473E" stroke-linecap="round"/>
<path d="M12 104C12 104.255 12 106.061 12 105.998C12 105.92 12 105.751 12 105.667" stroke="#F7473E" stroke-linecap="round"/>
<path d="M8 91.9352C7.81537 92.1599 7.72094 91.7438 7.64706 91.5415C7.5427 91.2557 7.42626 90.7493 7.41176 90.4318C7.39376 90.0374 7.35856 89.1455 7 89" stroke="#F7473E" stroke-linecap="round"/>
<path d="M12 78C12.2271 77.9546 12.8968 77.4127 13 77" stroke="#F7473E" stroke-width="3" stroke-linecap="round"/>
<path d="M12 79C12.1895 79 12.3815 78.4694 12.5657 78.3037C12.8501 78.0477 13.1885 77.9827 13.4545 77.5926C13.6264 77.3405 13.8179 77.1781 14 77" stroke="#EDA12D" stroke-width="3" stroke-linecap="round"/>
<path d="M15 77C14.2657 77.4582 13.4425 77.5506 12.7692 78.1067C12.171 78.6008 11.7226 79.3349 11.1111 79.88C10.5411 80.3881 10.0803 80.8959 9.57692 81.5067C9.35897 81.7711 9.05788 82.2265 8.80769 82.4C8.53952 82.5859 8.24032 82.7501 8 83" stroke="#EDA12D" stroke-width="3" stroke-linecap="round"/>
<path d="M8 83C7.6566 83 7.3469 83 7 83" stroke="#EDA12D" stroke-width="3" stroke-linecap="round"/>
<path d="M7 83C7 82.5743 7 82.2078 7 82" stroke="#EDA12D" stroke-width="3" stroke-linecap="round"/>
<path d="M7 83C7 83.3743 7 83.6691 7 84" stroke="#EDA12D" stroke-width="3" stroke-linecap="round"/>
<path d="M7 84C7.80405 83.1991 8.7329 82.4657 9.64394 82.0234C10.0701 81.8165 10.8365 81.7558 11.1742 81.2865C11.2384 81.1974 11.3681 81.0786 11.447 81.0292C11.9613 80.7074 12.453 80.1689 13 80" stroke="#EDA12D" stroke-width="3" stroke-linecap="round"/>
<path d="M11 82C12.6062 80.7433 14.1917 79.3631 15.7473 77.9753C16.2492 77.5275 16.6009 76.6726 17 76" stroke="#EDA12D" stroke-width="3" stroke-linecap="round"/>
<path d="M7 80C7.03543 79.8471 7.48314 79.6483 7.60163 79.5731C8.04247 79.2933 8.50502 79.036 8.96206 78.7895C9.57045 78.4613 10.3408 78.1778 11 78" stroke="#EDA12D" stroke-width="3" stroke-linecap="round"/>
<path d="M11 78C11.609 77.2782 12.3445 76.3496 13 76" stroke="#EDA12D" stroke-width="3" stroke-linecap="round"/>
<path d="M14 76C14.6612 75.9082 15.3585 75.2673 16 75" stroke="#EDA12D" stroke-width="3" stroke-linecap="round"/>
<path d="M16 75C16.1738 75 16.7061 75 17 75" stroke="#EDA12D" stroke-width="3" stroke-linecap="round"/>
<path d="M16 76C16.1848 76.0093 17.1043 76.8969 16.9902 77" stroke="#EDA12D" stroke-width="3" stroke-linecap="round"/>
<path d="M17 77C16.5659 77.0475 16.1427 77.4935 15.7044 77.5948C15.5384 77.6331 15.4129 77.85 15.2704 77.9346C14.8312 78.1955 14.381 78.4721 14 79" stroke="#EDA12D" stroke-width="3" stroke-linecap="round"/>
<path d="M16 73C16 72.9463 16 72.2719 16 72" stroke="#EDA12D" stroke-linecap="round"/>
<path d="M17 75C17.1615 75.4173 17.3364 75.827 17.4853 76.2483C17.5497 76.4305 17.5841 76.5707 17.7378 76.703C17.934 76.872 18.0245 77.0153 18.1509 77.2114C18.3157 77.4669 18.613 77.7941 18.6526 78.101C18.6735 78.2629 18.785 78.3857 18.8329 78.5303C18.8703 78.6431 19.1145 78.9144 18.9346 78.9144C18.5517 78.9144 18.1309 78.7865 17.7673 78.9257C17.618 78.9829 17.2444 79.0379 17.118 78.9653" stroke="#EDA12D" stroke-linecap="round"/>
<path d="M7 85C7 85.0065 7 85.1837 7 85.2435C7 85.326 7 85.4846 7 85.588C7 85.7738 7 86.2762 7 85.8019" stroke="#EDA12D" stroke-linecap="round"/>
<path d="M7 86C7.17524 85.9802 7.33969 85.8462 7.51894 85.8462C7.67288 85.8462 7.99486 85.9962 8.08333 85.8077C8.13767 85.6919 8.40807 85.6379 8.51515 85.6068C8.61844 85.5769 8.73642 85.5065 8.84091 85.5C8.99794 85.4902 9.21946 85.3135 9.36742 85.2393C9.56361 85.1409 9.82987 85.128 10 85" stroke="#EDA12D" stroke-linecap="round"/>
<path d="M10 85C10.1753 84.8765 10.6985 84.888 10.8167 84.6382C10.8494 84.569 11.0164 84.49 11.0694 84.47C11.2878 84.3879 11.5135 84.2757 11.7198 84.1594C12.3589 83.7989 13.0289 83.183 13.5302 82.4196C13.6384 82.2549 13.8045 82.1821 13.9278 82.0431C14.0887 81.8616 14.2957 81.6459 14.4722 81.5132C14.7959 81.2698 15.1227 81.046 15.4444 80.8041C15.7591 80.5675 16.1716 80.647 16.475 80.3618C16.6256 80.2203 16.8344 80.0934 17 80" stroke="#EDA12D" stroke-linecap="round"/>
<path d="M9.15427 82.2187C9.15427 81.5853 8.89812 82.3253 9.21418 82.5782C9.41646 82.74 9.62559 82.6385 9.63354 82.9642C9.65026 83.6501 9.69741 83.5366 10.2925 83.1839C10.5733 83.0175 10.8723 82.9139 10.4589 83.2837C9.87534 83.8059 9.24132 84.2861 8.58181 84.7082C8.56393 84.7197 7.80754 85.1987 7.76972 85.1609C7.70173 85.0929 8.55595 84.6934 8.58181 84.6816C8.99943 84.4913 9.40583 84.2799 9.82657 84.0958C9.97741 84.0298 9.68256 84.203 9.71341 84.2955C9.72723 84.337 9.79556 84.2644 9.83323 84.2423C10.0818 84.0961 10.3314 83.951 10.5788 83.8029C11.0421 83.5256 12.1095 83.0581 12.2695 82.5782" stroke="#EDA12D" stroke-linecap="round"/>
<path d="M10.7119 77.3069C9.9612 77.3586 9.26811 77.7525 8.72824 78.2654C8.37859 78.5976 9.14582 77.4522 9.26076 77.3268C9.98588 76.5358 8.95433 77.2253 8.52189 77.4134C8.11051 77.5922 8.67214 77.1755 8.72824 77.1338C9.24286 76.7515 9.76433 76.4736 10.3524 76.2285" stroke="#EDA12D" stroke-linecap="round"/>
<path d="M10.6304 76.145C10.6304 75.9347 11.2332 75.6786 11.4292 75.5991C11.8162 75.4422 12.2265 75.2642 12.5565 75.0266C12.7802 74.8655 13.0111 74.672 13.2533 74.5428C13.4485 74.4387 13.6143 74.2791 13.808 74.1678C14.178 73.9553 14.5297 73.7201 14.8865 73.4866C15.1343 73.3243 15.3566 73.1271 15.6077 72.9673C15.8008 72.8444 15.9747 72.7001 16.1336 72.5413C16.4842 72.1906 15.3433 73.2137 14.8554 73.3024C14.7416 73.3231 15.0201 73.1396 15.1084 73.0649C15.2569 72.9393 15.4138 72.8003 15.5256 72.6389C15.6464 72.4643 15.8119 72.3215 15.9627 72.1707C16.2359 71.8975 16.3881 72.0037 16.5619 72.3127C16.7324 72.6159 16.8352 72.9415 17.039 73.2292C17.06 73.2589 17.2453 73.5263 17.181 73.4999C17.0187 73.433 16.585 73.1538 16.4021 73.2758C16.0715 73.4961 16.7165 74.2378 16.8437 74.3919C17.3562 75.0132 17.9035 75.7469 18.1219 76.5355C18.1981 76.811 18.167 77.2939 18.0775 77.5496C18.0034 77.7613 17.8725 78.0374 17.86 78.2619C17.8571 78.3142 17.8839 78.3632 17.8822 78.4084C17.8733 78.6498 17.4663 78.8706 17.303 78.9964C17.1401 79.1221 16.9631 79.23 16.8037 79.3604C16.7503 79.4041 16.7195 79.4769 16.6617 79.509C16.5736 79.558 16.5018 79.6201 16.4309 79.691C16.4126 79.7093 16.2667 79.8398 16.2667 79.8352C16.2667 79.6408 16.8782 79.2891 17.0212 79.1984C17.1875 79.0929 17.2265 79.118 17.1144 79.3005C17.0317 79.4351 16.7872 79.8275 16.8215 79.6733C16.8422 79.5801 17.0394 79.5291 17.1188 79.5002C17.1665 79.4829 17.4606 79.311 17.4606 79.5002C17.4606 79.65 16.964 79.8176 17.2409 79.6022C17.4082 79.4721 17.6839 79.4175 17.8866 79.3715C18.07 79.3298 18.539 79.3406 18.539 79.1007C18.539 78.913 18.4133 78.7589 18.3615 78.5815C18.2963 78.3581 18.3005 78.1041 18.1795 77.9025" stroke="#EDA12D" stroke-linecap="round"/>
<path d="M6.83588 80.0605C6.55382 80.3037 6.42895 80.6942 6.39872 81.0569C6.36057 81.5148 6.10462 80.7594 6.04146 80.6331C5.97943 80.509 5.95714 80.5073 5.95714 80.6397C5.95714 80.6993 5.92163 80.8746 5.92163 80.815C5.92163 80.768 6.00384 81.1458 6.01705 81.2144C6.07644 81.5233 6.19679 81.8882 6.19679 82.1997C6.19679 82.3923 6.31347 82.6123 6.35878 82.8011C6.43326 83.1114 6.62512 83.3983 6.67389 83.7153C6.72376 84.0395 6.64377 84.3978 6.63616 84.725C6.63086 84.9529 6.63616 85.1524 6.63616 85.3818C6.63616 85.547 6.64151 85.7045 6.70717 85.8522C6.73381 85.9122 6.69623 86.3213 6.79593 86.1718" stroke="#EDA12D" stroke-linecap="round"/>
<path d="M8.79293 87.9276C8.47896 88.0453 8.18024 88.2072 7.87425 88.3447C7.6818 88.4312 7.16183 88.7532 7.28842 88.5844C7.52471 88.2694 7.88118 88.0081 8.18048 87.7589C8.49022 87.501 8.8137 87.2666 9.15242 87.0488" stroke="#F7473E" stroke-linecap="round"/>
<path d="M8.31377 87.3303C8.58293 87.1419 9.42364 86.628 9.157 86.8199C8.88121 87.0185 8.57463 87.1832 8.26939 87.3303C7.94975 87.4844 7.56934 87.5554 7.26194 87.7209C7.14179 87.7856 7.4811 87.5577 7.59702 87.4857C8.6842 86.8103 9.82367 86.3257 10.9899 85.8125" stroke="#F7473E" stroke-linecap="round"/>
<path d="M10.3508 86.1719C10.4274 86.1847 10.5586 86.1044 10.6126 86.0787C10.8714 85.9558 11.124 85.8168 11.3959 85.7237C11.4946 85.6899 11.7554 85.5937 11.7066 85.6859C11.6228 85.8442 11.3942 85.9977 11.265 86.112C11.0118 86.336 10.7321 86.5194 10.4706 86.7311C10.361 86.8198 10.6255 86.4891 10.7369 86.4027C10.9687 86.2227 10.9875 86.2653 10.7191 86.3827C10.4201 86.5135 10.1136 86.6265 9.81374 86.7555C9.55342 86.8675 9.69259 86.8234 9.84259 86.7533C10.3897 86.4975 10.9155 86.1923 11.4203 85.8612C11.6477 85.7121 11.8437 85.5228 12.0683 85.373" stroke="#F7473E" stroke-linecap="round"/>
<path d="M12.3079 85.132C12.5349 84.8596 12.9437 84.653 13.2487 84.4796C13.363 84.4147 13.4816 84.3655 13.6016 84.3132C13.6158 84.307 13.8304 84.2117 13.8235 84.2311C13.7588 84.4122 13.4631 84.5976 13.3264 84.7126C13.2738 84.7569 12.7423 85.2274 13.018 84.99C13.222 84.8143 13.4624 84.6962 13.6925 84.5595C13.9507 84.4061 13.8135 84.4611 13.6459 84.5817C13.4153 84.7478 13.1547 84.8658 12.8981 84.9856C12.8293 85.0177 12.935 84.9043 12.9469 84.8924" stroke="#F7473E" stroke-linecap="round"/>
<path d="M14.1853 83.8543C14.2282 83.8489 14.228 83.8146 14.2585 83.7877C14.4568 83.6128 14.7052 83.4855 14.922 83.335C15.1557 83.1729 15.3857 83.0053 15.6188 82.8424C15.7004 82.7853 15.9956 82.5804 15.7164 82.7581C15.4084 82.9541 15.0944 83.1406 14.78 83.3261C14.6797 83.3853 14.4416 83.5356 14.6202 83.3239C15.1323 82.717 15.9392 82.3381 16.6396 81.9969C16.8033 81.9172 16.9483 81.81 17.0922 81.6974C17.1258 81.6711 17.356 81.4501 17.394 81.4843C17.4248 81.512 17.2175 81.885 17.1988 81.9237C17.1057 82.1155 17.2823 81.8966 17.3275 81.8505C17.5473 81.6257 17.7978 81.4474 18.0442 81.2535C18.1035 81.2069 18.6014 80.7938 18.6145 80.8497C18.6477 80.9906 18.5726 81.1363 18.5191 81.2602C18.4659 81.3833 18.4199 81.5092 18.3882 81.6397C18.3871 81.6441 18.3781 81.7626 18.3482 81.7284C18.3146 81.69 18.4205 81.339 18.3016 81.7351C18.2798 81.8079 18.241 82.0329 18.2595 81.9592C18.2992 81.8004 18.325 81.6454 18.3793 81.4888C18.4949 81.1552 18.6267 80.8829 18.7876 80.579C18.8477 80.4654 18.9921 80.2921 18.9185 80.1596C18.8571 80.049 18.8187 79.7413 18.8187 80.0198" stroke="#F7473E" stroke-linecap="round"/>
<path d="M18.9384 82.6152C19.2441 83.3884 19.4418 84.1905 19.8127 84.9408C19.9197 85.1571 19.9001 85.0172 19.8948 84.8343C19.8835 84.4384 19.8766 84.0266 19.8083 83.636C19.7626 83.3745 19.704 83.1166 19.6397 82.8593C19.6325 82.8307 19.5702 82.6354 19.6485 82.7528C19.8021 82.9831 19.8968 83.3175 19.9947 83.5761C20.1111 83.8833 20.2086 84.1979 20.3231 84.5059C20.433 84.8012 20.5361 84.9563 20.5361 85.2603C20.5361 85.4374 20.5487 85.4594 20.5095 85.2492C20.4361 84.8554 20.335 84.4631 20.2344 84.0754C20.1475 83.7407 20.0674 83.4075 19.9858 83.0724C19.8952 82.6999 20.0239 83.066 20.0568 83.241C20.1892 83.9444 20.2818 84.6555 20.3941 85.3624C20.4398 85.6501 20.4491 85.9468 20.5184 86.2301C20.5759 86.4652 20.896 87.1092 20.7447 86.9202C20.6705 86.8274 20.6082 86.6225 20.5628 86.5274C20.4158 86.2194 20.2649 85.9079 20.0635 85.6309C19.7808 85.2422 19.5155 85.4311 19.1515 85.6598C18.1994 86.2578 17.3807 87.0337 16.4797 87.7013C15.7382 88.2507 14.949 88.7629 14.1409 89.2102C14.0659 89.2517 14.0113 89.3397 13.9478 89.4033C13.674 89.6771 14.1669 89.0522 14.203 89.0149C14.5019 88.7065 15.5698 87.9762 15.2459 88.2583C14.8266 88.6235 14.4109 88.9616 13.9367 89.2546C13.632 89.4428 12.6915 89.9617 12.9936 89.7694C13.1867 89.6466 13.4706 89.3907 13.7015 89.3522C13.7631 89.342 13.6393 89.4606 13.6039 89.512C13.5274 89.623 13.4627 89.7351 13.4086 89.8582C13.3505 89.9901 13.3884 89.9353 13.5062 89.8848" stroke="#F7473E" stroke-linecap="round"/>
<path d="M13.2267 107.021C13.2588 107.471 13.2636 107.936 13.2245 108.386C13.2153 108.492 13.0835 108.225 13.027 108.135C12.8547 107.86 12.6583 107.606 12.4611 107.349C12.247 107.07 12.0302 106.79 11.8376 106.495C11.7834 106.412 11.7523 106.162 11.6889 106.238C11.631 106.307 11.6689 106.553 11.6689 106.628C11.6689 106.829 11.6676 107.03 11.6889 107.23C11.7355 107.667 11.6985 107.146 11.6822 107.01C11.6392 106.65 11.5722 106.197 11.4359 105.856C11.2081 105.286 11.6911 107.058 11.8709 107.645C11.9172 107.796 12.0516 108.491 12.288 108.341C12.3723 108.288 12.4083 108.294 12.4855 108.348C12.6946 108.493 12.9625 108.562 13.2045 108.628C13.4394 108.691 13.448 108.669 13.3953 108.85C13.3804 108.901 13.5021 108.826 13.5462 108.796C13.9416 108.528 14.3345 108.255 14.7312 107.989C14.8984 107.876 15.4041 107.548 15.2238 107.638C15.0715 107.714 14.9212 107.85 14.7756 107.94C14.4969 108.111 14.2139 108.275 13.9324 108.441C13.9063 108.457 13.6422 108.654 13.5951 108.632C13.5383 108.606 13.9239 108.26 13.9679 108.237C14.1167 108.158 13.7719 108.513 13.6528 108.632C13.5131 108.772 13.4986 108.524 13.4641 108.412C13.3187 107.94 13.1887 107.506 12.865 107.121C12.5454 106.741 12.1713 106.459 11.7754 106.164C11.6506 106.072 11.4994 105.952 11.4004 105.829C11.2555 105.65 11.1638 105.463 11.092 105.248C11.0409 105.095 11.2829 105.511 11.3494 105.659C11.3888 105.746 11.4794 106.102 11.6024 105.96C11.9813 105.523 12.2563 104.981 12.5632 104.494C12.6343 104.381 12.9525 103.702 13.0447 104.043C13.175 104.525 13.2178 105.036 13.28 105.53C13.2826 105.55 13.2992 106.122 13.3865 106.164C13.4656 106.203 13.8562 105.675 13.8702 105.659C14.2951 105.17 14.7321 104.691 15.1528 104.198C16.2738 102.886 17.2589 101.486 18.2906 100.106C18.3063 100.085 18.6535 99.5668 18.7388 99.6094C18.8342 99.6571 18.9283 100.081 18.9563 100.155C19.0552 100.419 19.1419 100.707 19.2802 100.954C19.3584 101.094 19.4584 100.911 19.5066 100.843C19.9285 100.245 20.2853 99.608 20.5984 98.9482C20.6504 98.8384 20.8288 98.333 21.02 98.3712C21.2012 98.4074 21.2011 98.908 21.2153 99.0325C21.2377 99.2299 21.2693 99.8194 21.2974 99.6227C21.3332 99.372 21.4757 99.1397 21.5503 98.8993C21.6142 98.6934 21.7073 98.6937 21.8321 98.5332C21.9787 98.3448 22.1603 99.0773 22.2116 99.2056C22.2724 99.3575 22.2441 99.4549 22.216 99.6094C22.1311 100.077 22.0647 100.551 21.983 101.021C21.958 101.165 21.9742 101.323 21.9742 101.469C21.9742 101.861 21.9496 100.653 22.1251 100.302C22.2356 100.081 22.1102 100.796 22.094 101.043C22.0736 101.353 22.0005 101.656 21.9742 101.966C21.9272 102.517 21.8144 103.079 21.8144 103.633C21.8144 103.941 21.7789 104.867 21.7789 104.558C21.7789 104.431 22.0346 103.611 22.0119 104.112C22.0054 104.255 21.9992 104.411 21.9431 104.545C21.9207 104.598 21.8976 104.753 21.9431 104.718C22.0014 104.672 22.0077 104.482 22.0629 104.531C22.1528 104.611 22.0428 104.86 22.0141 104.944C21.9626 105.096 21.4385 105.933 21.375 105.743" stroke="#F7473E" stroke-linecap="round"/>
<path d="M21.4149 105.105C20.8545 105.461 20.2878 105.808 19.6774 106.072C19.6662 106.077 19.2733 106.257 19.2935 106.201C19.4263 105.834 19.7101 105.529 19.9903 105.269C20.2258 105.051 20.48 104.842 20.7425 104.657C20.998 104.476 20.701 104.729 20.636 104.783C20.4671 104.923 20.2794 105.029 20.0968 105.149C19.9209 105.265 20.0766 105.04 20.1234 104.95C20.2304 104.743 20.3644 104.523 20.5583 104.386C20.5722 104.376 20.2328 104.778 20.1345 104.863C19.9459 105.025 19.7572 105.192 19.5642 105.349C19.499 105.402 19.8445 105.134 19.8793 105.109C20.1764 104.901 20.4806 104.702 20.7802 104.497C20.825 104.466 21.0294 104.38 21.0554 104.322C21.1245 104.166 20.6506 104.468 20.5761 104.506" stroke="#F7473E" stroke-linecap="round"/>
<path d="M20.1768 104.664C19.7034 105.233 19.1678 105.677 18.5569 106.091C18.5328 106.107 18.1931 106.324 18.2196 106.271C18.341 106.028 18.606 105.82 18.8209 105.667C19.0012 105.539 19.6049 105.285 19.3868 105.321C19.0717 105.373 18.7149 105.609 18.4282 105.736C17.8281 106.002 17.2175 106.248 16.6219 106.524C16.5009 106.58 16.308 106.676 16.5575 106.557C16.8484 106.418 17.1625 106.321 17.474 106.24C17.5023 106.232 18.1316 106.087 17.9133 106.22C17.465 106.492 16.9438 106.662 16.4577 106.852C16.4232 106.866 15.5488 107.236 15.5567 107.247C15.595 107.298 16.3902 107.014 16.431 107.003C16.7895 106.905 17.3192 106.67 17.7003 106.712C17.7427 106.717 17.6319 106.764 17.5938 106.783C17.3208 106.922 17.048 107.06 16.7772 107.203C16.3962 107.404 15.9835 107.589 15.6344 107.844C15.4333 107.991 15.9675 107.762 15.9695 107.762C16.3941 107.622 16.8319 107.491 17.272 107.409C17.6124 107.346 17.3151 107.483 17.1855 107.54C16.7823 107.716 16.3531 107.854 15.9317 107.979C15.4859 108.112 16.2598 107.767 16.3068 107.744C16.7857 107.515 17.2637 107.291 17.7558 107.092C17.8337 107.06 18.1783 106.866 18.2817 106.901C18.2969 106.906 18.2544 106.918 18.2418 106.927C18.1635 106.989 18.0913 107.058 18.0154 107.123C17.9959 107.139 17.6472 107.403 17.6471 107.402C17.6305 107.353 18.4821 106.902 18.5191 106.881C18.7979 106.719 19.2326 106.348 19.5687 106.315C19.5689 106.315 19.3184 106.582 19.2891 106.606C18.918 106.91 18.4917 107.076 18.0886 107.318C18.0827 107.322 18.1382 107.285 18.1308 107.296C17.9563 107.54 17.5995 107.675 17.3386 107.786C16.7948 108.018 16.2267 108.203 15.6566 108.359C15.5892 108.377 14.9887 108.507 15.3925 108.379C15.7457 108.266 16.1041 108.161 16.4665 108.084C16.5481 108.066 17.5039 107.908 16.9547 108.077C16.3863 108.252 15.7974 108.344 15.2083 108.414C15.2021 108.415 14.5198 108.527 14.5226 108.53C14.5376 108.543 14.6348 108.526 14.6136 108.565C14.5504 108.681 14.3563 108.711 14.243 108.738C14.0042 108.795 13.3124 109.032 13.5285 108.916C13.6305 108.861 13.6235 108.952 13.675 109.009C13.7139 109.052 13.7464 109.09 13.6572 109.04C13.4333 108.914 13.1751 108.852 12.9294 108.783C12.7809 108.741 12.4146 108.587 12.2459 108.667C12.1814 108.698 12.3552 108.846 12.3879 108.867C12.5546 108.971 12.7025 108.967 12.9161 108.987C13.2277 109.015 12.9907 109.066 12.8451 109.107C12.5499 109.189 13.0619 109.285 13.1158 109.289C13.5109 109.312 13.9161 109.264 14.3096 109.235C14.7923 109.2 15.2906 109.171 15.7653 109.071C15.7923 109.065 16.4819 108.898 16.2934 108.747C16.2374 108.702 16.0464 108.886 16.1115 108.845C16.4087 108.658 16.7849 108.586 17.0612 108.379" stroke="#F7473E" stroke-linecap="round"/>
<path d="M14.5273 96.995C15.1478 96.9174 15.8308 96.3515 16.4908 96.434C16.5852 96.4458 15.7926 98.145 15.6804 98.3974C15.6405 98.4872 15.2652 99.0436 15.3064 99.0987C15.4919 99.3459 15.7378 99.5265 15.8986 99.7999C16.044 100.047 16.2666 100.313 16.3427 100.579C16.388 100.737 16.3136 101.464 16.3817 101.343C16.6176 100.923 18.149 99.8531 18.6256 100.33C18.7846 100.489 18.4495 102.085 18.2828 102.293C17.9226 102.743 17.9123 103.412 17.4413 103.836C17.0791 104.162 15.9617 104.682 15.509 104.709C14.7093 104.756 14.0448 104.989 13.2651 104.599C12.5606 104.247 12.4146 103.61 11.9717 103.057C11.2798 102.192 11.517 100.205 11.5821 99.0987C11.6118 98.5935 12.1071 97.9188 12.5638 97.665C13.4169 97.1911 14.6316 96.8366 13.9351 98.4286C13.8432 98.6388 13.3454 99.4301 13.3508 99.4259C13.6595 99.1858 13.898 98.9021 14.1689 98.6312C14.1981 98.602 13.1323 100.2 13.1248 100.08C13.111 99.8596 13.1943 99.5492 13.1015 99.348C13.0019 99.1324 12.3574 99.8291 12.2911 99.9947C12.2226 100.166 12.2833 99.6259 12.2833 99.4415C12.2833 99.0891 12.2833 99.705 12.2833 99.7999" stroke="white" stroke-linecap="round"/>
<path d="M12.7041 99.2375C12.7041 100.049 13.4869 99.3248 13.8261 99.1284C14.4131 98.7886 13.5556 99.6416 13.9663 98.957" stroke="white" stroke-linecap="round"/>
<path d="M14.5274 98.3977C14.4838 98.7904 14.0747 98.8106 14.4183 98.4289C14.7912 98.0145 14.5489 98.7144 14.3871 98.8964C14.3109 98.9822 15.0214 98.1909 15.1975 98.0081C15.4439 97.7522 15.8383 97.6041 15.4312 97.8367C14.4688 98.3867 14.7292 98.0473 13.8262 99.3015C13.3854 99.9136 13.1778 99.8824 13.6236 99.3093C13.957 98.8806 13.152 99.7384 13.234 99.5197C13.4322 98.9912 12.4957 99.0874 12.4237 99.5197C12.364 99.8779 13.0341 99.2114 13.0938 98.9899C13.2031 98.5839 12.5639 98.3835 12.5639 98.9587C12.5639 99.2259 13.3279 99.5454 13.3976 99.3015C13.5265 98.8503 12.5801 100.137 12.7743 100.564C12.9831 101.023 13.4664 100.29 13.5924 100.026C13.9798 99.2161 13.3863 100.175 13.6158 100.634C13.7907 100.984 14.1066 100.899 14.1066 100.501" stroke="white" stroke-linecap="round"/>
<path d="M13.5311 98.0469C13.5364 97.9991 13.5693 97.9854 13.5865 97.9453C13.593 97.9302 13.1864 98.0835 13.1476 98.1024C12.8752 98.235 13.0304 98.1706 13.1568 98.0793C13.4382 97.8761 13.6958 97.7173 14.0439 97.5202C14.2853 97.3836 14.5356 97.2515 14.7785 97.1229C14.8961 97.0607 14.9576 97.1675 15.0695 97.1737C15.1665 97.1791 15.1886 97.2018 15.1943 97.2985C15.2 97.3958 15.3133 97.2218 15.2589 97.317C15.1591 97.4916 14.954 97.6179 14.8085 97.7489C14.4414 98.0793 14.1055 98.4416 13.7713 98.8046C13.3473 99.2652 12.8344 99.8066 12.7087 100.449C12.6852 100.569 12.9586 100.257 12.9813 100.186C13.0876 99.8553 12.706 100.828 12.6255 101.165C12.5957 101.291 12.6769 101.189 12.6995 101.135C12.7521 101.011 12.7961 100.863 12.7734 100.727C12.7241 100.431 12.539 100.583 12.4916 100.773C12.485 100.799 12.4231 101.214 12.5331 101.156C12.665 101.086 12.5886 100.728 12.577 100.907C12.5679 101.048 12.4841 101.444 12.6787 101.454C13.2207 101.483 13.7799 101.304 14.0601 100.81C14.1776 100.602 14.2416 100.382 14.2287 100.144C14.2202 99.9874 14.1594 99.5205 14.1594 99.6778C14.1594 99.7551 14.1838 100.49 14.3673 100.327C14.5862 100.132 14.5989 99.8719 14.5498 99.5969C14.487 99.2457 14.7892 100.033 14.8131 100.107C14.9518 100.541 14.7913 100.051 14.7623 99.8834C14.7451 99.7838 14.6966 99.4927 14.7461 99.5808C14.8613 99.7855 14.876 100.088 14.9355 100.311C14.9927 100.525 15.1368 100.777 15.1527 100.999C15.168 101.214 15.2005 100.567 15.2774 100.366C15.375 100.111 15.7008 100.75 15.7764 100.865C15.8002 100.901 15.9444 101.193 15.9011 101.147C15.7858 101.025 15.6796 100.892 15.5662 100.768C15.4758 100.669 15.179 100.299 15.3236 100.676C15.5252 101.201 15.7713 101.532 16.2291 101.845C16.3903 101.954 16.5572 102.026 16.7004 101.886C16.8428 101.747 17.4304 101.215 17.6567 101.359C17.6949 101.384 17.6221 101.461 17.7052 101.295C17.7316 101.242 17.5138 101.495 17.5505 101.426C17.6275 101.283 17.9245 100.895 17.83 101.027C17.7643 101.119 17.7062 101.226 17.6683 101.332C17.6038 101.512 17.7175 101.764 17.6313 101.983C17.4514 102.44 17.057 102.776 16.8621 103.214C16.8219 103.305 16.9258 103.015 17.003 102.953C17.1671 102.822 16.6309 103.151 16.4578 103.27C16.3808 103.323 15.9138 103.737 16.0905 103.432C16.1383 103.349 16.2162 103.327 16.28 103.263C16.3455 103.197 16.1108 103.339 16.0259 103.376C15.7484 103.497 15.4635 103.596 15.1804 103.702C15.138 103.718 14.8758 103.818 14.8778 103.815C15.0727 103.523 15.4906 103.386 15.7671 103.187C15.8798 103.105 15.694 103.162 15.6655 103.17C15.4219 103.244 15.1726 103.284 14.9263 103.346C14.5286 103.445 15.0441 103.289 15.1712 103.217C15.3783 103.099 15.5926 102.916 15.5962 102.658C15.5994 102.426 15.4923 102.136 15.2497 102.069C15.0038 102.001 14.771 102.117 14.5937 102.283C14.5304 102.343 14.456 102.448 14.5798 102.487C14.8541 102.572 15.3856 102.265 15.4899 102.02C15.7591 101.387 14.4962 101.524 14.2472 101.567C13.97 101.616 13.0997 101.846 13.4479 102.32C13.5314 102.434 13.8051 102.409 13.9168 102.404C14.2642 102.386 14.6346 102.274 14.9355 102.099C15.1545 101.971 15.0474 101.847 14.8686 101.75C14.618 101.613 14.3098 101.55 14.03 101.627C13.9918 101.638 13.3117 101.993 13.4987 102.113C13.5508 102.146 13.8012 101.964 13.8314 101.946C14.0437 101.819 14.3312 101.64 14.358 101.364C14.444 100.481 12.8478 101.228 12.577 101.436C12.374 101.591 12.0579 101.956 12.5124 101.99C12.828 102.013 13.1157 101.595 13.1037 101.313C13.095 101.109 12.8244 100.678 12.5586 100.796C12.5063 100.819 12.4916 101.12 12.4916 101.182C12.4916 101.269 12.4808 101.11 12.4731 101.091C12.4272 100.983 12.3227 100.882 12.2444 100.796C12.022 100.551 12.062 100.905 12.0365 101.096C12.0221 101.204 12.0089 100.954 12.0804 100.964C12.1802 100.979 12.2729 101.098 12.3576 101.147C12.491 101.224 12.6401 101.275 12.7826 101.332" stroke="white" stroke-linecap="round"/>
<path d="M13.531 101.455C14.1214 101.74 14.6567 101.853 15.3189 101.864C15.5664 101.868 15.8095 101.85 16.0535 101.811C16.0624 101.809 16.3018 101.758 16.2984 101.755C16.2076 101.683 15.5699 102.128 15.4853 102.213C15.2414 102.457 16.6311 101.595 16.4716 101.901C16.4206 101.999 16.0807 102.319 16.3261 102.328C16.4515 102.333 16.6152 102.258 16.4832 102.409C16.2968 102.622 16.6403 102.305 16.4832 102.619" stroke="white" stroke-linecap="round"/>
<path d="M16.6081 102.619C16.8662 102.676 16.2273 103.053 16.2107 103.063C15.8888 103.252 15.4215 103.636 15.028 103.659C14.9972 103.66 14.8273 103.696 14.961 103.696C15.21 103.696 15.4581 103.659 15.7072 103.659C15.8398 103.659 15.6913 103.864 15.751 103.804C15.756 103.799 15.3741 103.821 15.3376 103.825C15.061 103.856 14.7869 103.898 14.5083 103.906C14.259 103.913 14.0092 103.908 13.7598 103.908C13.5815 103.908 13.3232 103.673 13.3232 103.492" stroke="white" stroke-linecap="round"/>
<path d="M13.3232 103.409C13.2453 103.195 12.8013 103.073 12.6256 102.952C12.5724 102.915 12.489 102.743 12.6302 102.832C12.8378 102.962 13.1586 103.319 13.4249 103.326C13.692 103.333 13.6318 103.196 13.5773 103.019C13.4855 102.72 14.2088 103.012 14.3003 103.033C14.493 103.076 14.4607 103.134 14.2842 103.178C14.0593 103.234 14.423 103.032 14.4875 102.952" stroke="white" stroke-linecap="round"/>
<path d="M14.9033 97.4634C15.0869 97.3663 15.277 97.2069 15.5062 97.2579C15.7356 97.3088 15.3365 97.632 15.2775 97.6713" stroke="#EC6699" stroke-linecap="round"/>
<path d="M17.5645 101.123C17.5778 101.003 18.1135 100.715 18.1443 100.853C18.1778 101.004 18.0455 101.243 17.9803 101.373" stroke="#EC6699" stroke-linecap="round"/>
<path d="M14.1131 99.7095L14.0715 99.668" stroke="#6673EC" stroke-linecap="round"/>
<path d="M15.2773 101.788C15.3162 101.783 15.3295 101.767 15.3605 101.746" stroke="#6673EC" stroke-linecap="round"/>
<path d="M12.2837 101.123C12.3839 101.136 12.4689 101.243 12.5655 101.28C12.6876 101.327 12.7746 101.331 12.9074 101.331C13.0204 101.331 13.136 101.326 13.24 101.28C13.3751 101.22 13.3936 101.226 13.3232 101.349C13.1731 101.612 12.989 102.266 13.3648 102.454" stroke="#EC6699" stroke-opacity="0.28" stroke-width="0.3" stroke-linecap="round"/>
</svg>
