<svg width="50" height="36" viewBox="0 0 50 36" fill="none" xmlns="http://www.w3.org/2000/svg">
<path d="M24.4052 13.9491C22.9271 13.6206 21.1029 10.8554 19.6099 9.99102C16.8701 8.4048 14.3873 5.72852 11.0469 5.72852C5.94703 5.72852 2.93273 8.33629 4.69118 13.4162C6.90689 19.8172 11.0173 22.7139 16.4892 26.6224C19.3344 28.6547 24.3397 32.4453 27.8305 32.4453" stroke="#EC6699" stroke-width="7" stroke-linecap="round"/>
<path d="M26.4604 14.6349C27.2525 7.50648 45.6417 -2.51844 45.6417 9.49704C45.6417 17.8576 37.943 28.3902 29.8857 31.0759" stroke="#EC6699" stroke-width="7" stroke-linecap="round"/>
<path d="M38.7911 12.5801C38.2329 15.0919 30.6875 18.8653 32.9301 17.6038C36.0205 15.8654 39.7622 12.0901 41.1507 8.85043C41.3458 8.395 35.3545 11.0821 34.3383 11.8951C32.6464 13.2486 30.1649 19.2509 34.5286 17.9082C38.5338 16.6758 35.048 20.8964 33.4629 22.323C32.2022 23.4576 28.3306 25.3106 27.1453 23.2364C26.3574 21.8576 25.6881 18.5792 28.5154 18.7455C31.5529 18.9242 23.7201 31.4747 23.7201 26.6235C23.7201 22.7046 19.4019 21.0112 16.8696 18.7455C15.1489 17.2059 12.8722 16.4226 11.237 14.7875C8.47769 12.0281 11.3071 11.5449 13.7869 12.9226C16.7174 14.5507 20.06 19.2272 23.7201 19.4306C25.3608 19.5217 30.6252 20.7323 31.9406 19.088C32.7363 18.0934 36.8512 17.3754 38.106 17.3754" stroke="#EC6699" stroke-width="7" stroke-linecap="round"/>
</svg>
