<svg width="92" height="16" viewBox="0 0 92 16" fill="none" xmlns="http://www.w3.org/2000/svg">
<path d="M13.7346 14.904C13.5586 14.952 13.2786 15 12.8946 15.048C12.5266 15.096 12.1586 15.12 11.7906 15.12C11.4226 15.12 11.0946 15.088 10.8066 15.024C10.5346 14.976 10.3026 14.88 10.1106 14.736C9.91856 14.592 9.77456 14.392 9.67856 14.136C9.58256 13.88 9.53456 13.544 9.53456 13.128V9.384H4.92656V14.904C4.75056 14.952 4.47056 15 4.08656 15.048C3.71856 15.096 3.35056 15.12 2.98256 15.12C2.61456 15.12 2.28656 15.088 1.99856 15.024C1.72656 14.976 1.49456 14.88 1.30256 14.736C1.11056 14.592 0.966561 14.392 0.870561 14.136C0.774561 13.88 0.726561 13.544 0.726561 13.128V0.456C0.902561 0.423999 1.18256 0.383999 1.56656 0.336C1.95056 0.272 2.31856 0.24 2.67056 0.24C3.03856 0.24 3.35856 0.272 3.63056 0.336C3.91856 0.383999 4.15856 0.479999 4.35056 0.623999C4.54256 0.767999 4.68656 0.967999 4.78256 1.224C4.87856 1.48 4.92656 1.816 4.92656 2.232V6.072H9.53456V0.456C9.71056 0.423999 9.99056 0.383999 10.3746 0.336C10.7586 0.272 11.1266 0.24 11.4786 0.24C11.8466 0.24 12.1666 0.272 12.4386 0.336C12.7266 0.383999 12.9666 0.479999 13.1586 0.623999C13.3506 0.767999 13.4946 0.967999 13.5906 1.224C13.6866 1.48 13.7346 1.816 13.7346 2.232V14.904ZM21.2116 14.904C21.0356 14.952 20.7556 15 20.3716 15.048C20.0036 15.096 19.6356 15.12 19.2676 15.12C18.8996 15.12 18.5716 15.088 18.2836 15.024C18.0116 14.976 17.7796 14.88 17.5876 14.736C17.3956 14.592 17.2516 14.392 17.1556 14.136C17.0596 13.88 17.0116 13.544 17.0116 13.128V0.456C17.1876 0.423999 17.4676 0.383999 17.8516 0.336C18.2356 0.272 18.6036 0.24 18.9556 0.24C19.3236 0.24 19.6436 0.272 19.9156 0.336C20.2036 0.383999 20.4436 0.479999 20.6356 0.623999C20.8276 0.767999 20.9716 0.967999 21.0676 1.224C21.1636 1.48 21.2116 1.816 21.2116 2.232V14.904ZM33.6727 9.6V14.904C33.4967 14.952 33.2167 15 32.8327 15.048C32.4487 15.096 32.0727 15.12 31.7047 15.12C31.3367 15.12 31.0087 15.088 30.7207 15.024C30.4487 14.976 30.2167 14.88 30.0247 14.736C29.8327 14.592 29.6887 14.392 29.5927 14.136C29.4967 13.88 29.4487 13.544 29.4487 13.128V0.456C29.6247 0.423999 29.9047 0.383999 30.2887 0.336C30.6727 0.272 31.0407 0.24 31.3927 0.24C31.7607 0.24 32.0807 0.272 32.3527 0.336C32.6407 0.383999 32.8807 0.479999 33.0727 0.623999C33.2647 0.767999 33.4087 0.967999 33.5047 1.224C33.6007 1.48 33.6487 1.816 33.6487 2.232V6.048L38.6407 0.311999C39.7287 0.311999 40.5047 0.519999 40.9687 0.935999C41.4487 1.336 41.6887 1.816 41.6887 2.376C41.6887 2.792 41.5847 3.184 41.3767 3.552C41.1687 3.92 40.8327 4.336 40.3687 4.8L37.3687 7.8C37.7687 8.248 38.1847 8.712 38.6167 9.192C39.0647 9.672 39.4967 10.144 39.9127 10.608C40.3447 11.056 40.7527 11.488 41.1367 11.904C41.5367 12.32 41.8807 12.68 42.1687 12.984C42.1687 13.336 42.1047 13.648 41.9767 13.92C41.8487 14.192 41.6727 14.424 41.4487 14.616C41.2407 14.808 41.0007 14.952 40.7287 15.048C40.4567 15.144 40.1687 15.192 39.8647 15.192C39.2087 15.192 38.6727 15.032 38.2567 14.712C37.8407 14.376 37.4407 13.984 37.0567 13.536L33.6727 9.6ZM48.5744 14.904C48.3984 14.952 48.1184 15 47.7344 15.048C47.3664 15.096 46.9984 15.12 46.6304 15.12C46.2624 15.12 45.9344 15.088 45.6464 15.024C45.3744 14.976 45.1424 14.88 44.9504 14.736C44.7584 14.592 44.6144 14.392 44.5184 14.136C44.4224 13.88 44.3744 13.544 44.3744 13.128V0.456C44.5504 0.423999 44.8304 0.383999 45.2144 0.336C45.5984 0.272 45.9664 0.24 46.3184 0.24C46.6864 0.24 47.0064 0.272 47.2784 0.336C47.5664 0.383999 47.8064 0.479999 47.9984 0.623999C48.1904 0.767999 48.3344 0.967999 48.4304 1.224C48.5264 1.48 48.5744 1.816 48.5744 2.232V14.904ZM51.1749 3.816C51.0629 3.64 50.9589 3.4 50.8629 3.096C50.7669 2.792 50.7189 2.472 50.7189 2.136C50.7189 1.512 50.8549 1.064 51.1269 0.792C51.4149 0.52 51.7829 0.383999 52.2309 0.383999H62.6949C62.8069 0.559999 62.9109 0.799999 63.0069 1.104C63.1029 1.408 63.1509 1.728 63.1509 2.064C63.1509 2.688 63.0069 3.136 62.7189 3.408C62.4469 3.68 62.0869 3.816 61.6389 3.816H58.9749V14.904C58.7989 14.952 58.5189 15 58.1349 15.048C57.7669 15.096 57.3989 15.12 57.0309 15.12C56.6629 15.12 56.3349 15.088 56.0469 15.024C55.7749 14.976 55.5429 14.88 55.3509 14.736C55.1589 14.592 55.0149 14.392 54.9189 14.136C54.8229 13.88 54.7749 13.544 54.7749 13.128V3.816H51.1749ZM64.9052 3.816C64.7932 3.64 64.6892 3.4 64.5932 3.096C64.4972 2.792 64.4492 2.472 64.4492 2.136C64.4492 1.512 64.5852 1.064 64.8572 0.792C65.1452 0.52 65.5132 0.383999 65.9612 0.383999H76.4252C76.5372 0.559999 76.6412 0.799999 76.7372 1.104C76.8332 1.408 76.8812 1.728 76.8812 2.064C76.8812 2.688 76.7372 3.136 76.4492 3.408C76.1772 3.68 75.8172 3.816 75.3692 3.816H72.7052V14.904C72.5292 14.952 72.2492 15 71.8652 15.048C71.4972 15.096 71.1292 15.12 70.7612 15.12C70.3932 15.12 70.0652 15.088 69.7772 15.024C69.5052 14.976 69.2732 14.88 69.0812 14.736C68.8892 14.592 68.7452 14.392 68.6492 14.136C68.5532 13.88 68.5052 13.544 68.5052 13.128V3.816H64.9052ZM87.2442 14.904C87.0682 14.952 86.7962 15 86.4282 15.048C86.0602 15.096 85.7002 15.12 85.3482 15.12C84.6122 15.12 84.0602 15 83.6922 14.76C83.3242 14.504 83.1402 13.976 83.1402 13.176V9.936C82.7402 9.344 82.3082 8.688 81.8442 7.968C81.3802 7.248 80.9242 6.512 80.4762 5.76C80.0282 5.008 79.6122 4.272 79.2282 3.552C78.8442 2.816 78.5322 2.144 78.2922 1.536C78.5002 1.248 78.7802 0.983999 79.1322 0.743999C79.5002 0.503999 79.9482 0.383999 80.4762 0.383999C81.1002 0.383999 81.6042 0.511999 81.9882 0.767999C82.3882 1.024 82.7642 1.504 83.1162 2.208L85.1082 6.216H85.2522C85.4762 5.72 85.6682 5.272 85.8282 4.872C86.0042 4.456 86.1722 4.048 86.3322 3.648C86.4922 3.232 86.6602 2.808 86.8362 2.376C87.0122 1.928 87.2122 1.416 87.4362 0.839999C87.7242 0.695999 88.0442 0.583999 88.3962 0.503999C88.7482 0.423999 89.0842 0.383999 89.4042 0.383999C89.9642 0.383999 90.4362 0.535999 90.8202 0.839999C91.2202 1.128 91.4202 1.568 91.4202 2.16C91.4202 2.352 91.3802 2.584 91.3002 2.856C91.2202 3.128 91.0362 3.544 90.7482 4.104C90.4602 4.648 90.0362 5.392 89.4762 6.336C88.9322 7.28 88.1882 8.512 87.2442 10.032V14.904Z" fill="#EEEEF2"/>
</svg>
