<svg width="63" height="52" viewBox="0 0 63 52" fill="none" xmlns="http://www.w3.org/2000/svg">
<path d="M17.6182 23.4325C11.7843 23.4325 6.14548 18.4436 9.50344 12.6435C15.7673 1.82409 27.4011 -0.0149108 38.3662 2.26949C41.685 2.9609 47.2439 4.19172 48.5097 7.8484C50.1368 12.5488 51.2324 18.1734 47.9103 22.2337C45.9824 24.59 44.4429 26.3225 41.7781 27.9509C38.9527 29.6776 43.0734 31.0393 44.8212 32.5616C48.963 36.169 52.4999 40.4177 56.5784 44.0883C58.8168 46.1029 60.8567 47.3611 62.434 49.9899" stroke="black" stroke-linecap="round"/>
<path d="M16.7885 24.2617C12.9188 34.0499 4.28797 41.0153 1.02002 50.8192" stroke="black" stroke-linecap="round"/>
</svg>
