<svg width="43" height="17" viewBox="-5 0 43 17" fill="none" xmlns="http://www.w3.org/2000/svg">
<path d="M5.20626 1.38773C5.20626 3.73826 6.70742 1.57569 6.10537 1.14566C4.79737 0.211373 4.36726 4.14825 5.82872 2.32143C7.51633 0.211915 3.23132 3.18596 4.89503 3.18596C6.16795 3.18596 5.5928 1.05498 4.30714 1.42231C2.4907 1.9413 6.30688 3.45663 4.72212 1.87187C4.23576 1.38551 3.36797 4.7476 4.72212 3.39345C6.25252 1.86305 3.33887 0.768555 3.33887 2.0102C3.33887 4.14623 6.56145 2.63266 3.96133 2.63266" stroke="black" stroke-linecap="round"/>
<path d="M26.9924 1.38672C23.7125 1.38672 26.3044 3.01691 26.3354 2.9083C27.0353 0.458538 22.9731 2.18254 24.8484 3.25411C25.3862 3.56142 26.7474 3.72766 26.2316 2.63165C25.7506 1.6095 24.1405 2.40097 24.6409 3.11579C25.451 4.27306 28.1332 2.00918 24.5026 2.00918" stroke="black" stroke-linecap="round"/>
<path d="M1.47119 11.3477C1.60661 12.431 8.21303 15.003 9.56322 15.0824C10.6802 15.1481 11.9655 16.2607 13.298 16.3274C14.9489 16.4099 16.6242 16.3274 18.2777 16.3274C23.1991 16.3274 26.1169 13.3415 30.1045 11.3477" stroke="black" stroke-linecap="round"/>
</svg>
